<?xml version="1.0" standalone="no"?>
<!DOCTYPE svg PUBLIC "-//W3C//DTD SVG 20010904//EN"
 "http://www.w3.org/TR/2001/REC-SVG-20010904/DTD/svg10.dtd">
<svg version="1.0" xmlns="http://www.w3.org/2000/svg"
 width="512.000000pt" height="512.000000pt" viewBox="0 0 512.000000 512.000000"
 preserveAspectRatio="xMidYMid meet">

<g transform="translate(0.000000,512.000000) scale(0.100000,-0.100000)"
fill="#000000" stroke="none">
<path d="M1230 5111 c-56 -18 -109 -52 -179 -115 -112 -100 -181 -109 -283
-36 -96 68 -172 73 -256 16 -58 -39 -92 -101 -92 -169 0 -57 57 -239 96 -305
l26 -43 -16 -192 c-9 -106 -19 -224 -22 -264 -6 -68 -5 -73 19 -97 32 -32 68
-33 101 -3 24 21 26 30 41 227 8 113 17 224 20 246 l6 41 57 7 c921 108 1861
108 2833 0 l56 -6 17 -212 c38 -470 48 -714 53 -1301 5 -578 -1 -870 -28
-1315 l-11 -175 -69 -63 c-59 -55 -69 -69 -69 -97 0 -38 37 -75 75 -75 14 0
62 33 123 84 185 155 261 195 373 196 93 0 186 -47 285 -144 121 -120 171
-248 161 -416 -12 -196 -108 -384 -284 -550 -242 -229 -598 -264 -898 -88
-123 73 -192 150 -326 364 -121 196 -217 333 -272 391 -17 18 -28 33 -25 33 3
0 44 -18 90 -40 123 -59 190 -73 322 -68 93 4 122 9 179 32 104 43 134 100 81
153 -30 29 -49 28 -139 -11 -48 -20 -76 -26 -140 -26 -107 0 -177 19 -303 85
-146 77 -192 89 -316 82 -121 -6 -245 -42 -308 -90 -53 -41 -94 -106 -110
-176 l-13 -54 -230 7 c-431 13 -1140 67 -1162 90 -6 6 -38 382 -52 626 -32
536 -38 1279 -14 1866 6 156 5 162 -16 183 -26 26 -71 27 -102 2 -21 -17 -24
-30 -32 -167 -15 -226 -14 -1399 1 -1664 16 -286 28 -467 48 -706 l16 -191
-35 -69 c-46 -92 -87 -224 -87 -282 1 -116 97 -212 213 -212 37 0 83 20 147
64 44 31 61 36 107 36 67 0 98 -16 178 -90 88 -82 132 -103 230 -108 110 -6
172 18 264 103 87 79 117 95 181 95 63 0 78 -7 165 -85 39 -34 90 -73 115 -85
62 -32 178 -39 249 -15 52 17 52 17 89 -8 86 -57 185 -94 319 -122 94 -20 321
-20 418 -1 l70 14 60 -43 c193 -137 459 -201 683 -165 192 31 330 105 483 259
115 115 191 223 239 337 54 131 65 187 65 334 -1 120 -4 143 -27 208 -40 110
-84 178 -178 272 -136 136 -244 189 -386 190 -84 0 -148 -16 -233 -60 l-44
-22 7 134 c20 390 25 608 26 1053 0 607 -20 1112 -65 1595 -13 140 -12 146 7
180 31 53 74 167 93 246 16 66 16 76 1 127 -30 102 -140 170 -239 147 -21 -4
-66 -26 -99 -49 -105 -71 -166 -66 -269 22 -139 120 -193 143 -304 135 -84 -7
-138 -34 -220 -108 -146 -131 -208 -132 -349 -5 -86 76 -146 106 -231 113 -87
7 -162 -17 -227 -73 -130 -110 -149 -123 -187 -130 -66 -11 -115 10 -194 82
-91 84 -157 115 -251 119 -39 2 -82 0 -96 -5z m153 -155 c18 -7 65 -44 106
-81 97 -88 143 -108 246 -109 102 -1 163 26 259 114 75 68 117 90 170 90 53 0
76 -12 167 -91 110 -94 151 -113 254 -114 100 0 162 28 258 115 131 121 205
120 335 -1 36 -34 88 -72 116 -85 102 -47 223 -40 312 19 76 51 85 55 105 50
11 -3 27 -16 36 -29 14 -22 13 -30 -7 -96 -12 -40 -31 -95 -43 -122 l-21 -49
-70 7 c-39 3 -134 12 -211 21 -461 48 -1085 71 -1568 55 -414 -13 -827 -41
-1037 -71 -36 -5 -82 -9 -103 -9 -37 0 -39 2 -63 56 -36 81 -58 168 -50 198 4
16 17 31 33 37 23 8 33 5 70 -21 76 -55 131 -74 213 -74 96 -1 160 28 256 114
38 35 83 69 99 76 39 17 98 17 138 0z m1118 -3906 c76 -38 196 -171 304 -337
110 -166 218 -341 223 -360 4 -15 -121 -21 -238 -11 -235 19 -429 128 -508
284 -58 115 -69 283 -23 371 42 82 141 104 242 53z m-1596 -195 c259 -27 518
-44 847 -57 l328 -12 6 -35 c11 -70 46 -170 80 -226 l35 -58 -55 5 c-58 5 -54
3 -182 110 -85 72 -139 91 -242 86 -96 -4 -152 -30 -236 -108 -75 -71 -112
-90 -170 -90 -65 0 -86 11 -172 89 -92 85 -152 111 -253 111 -82 0 -137 -18
-201 -65 -53 -39 -66 -42 -98 -19 -35 24 -28 76 33 228 l28 68 56 -6 c31 -4
119 -13 196 -21z"/>
<path d="M2040 3949 c-240 -20 -481 -106 -679 -242 -98 -68 -253 -222 -319
-319 -333 -488 -266 -1106 164 -1518 189 -180 410 -295 677 -352 137 -29 396
-31 537 -4 523 101 919 460 1042 943 20 76 23 113 22 273 0 170 -2 193 -28
285 -55 200 -153 371 -303 526 -287 297 -689 444 -1113 408z m349 -165 c376
-67 698 -303 856 -629 60 -125 87 -234 92 -383 6 -150 -6 -245 -44 -361 -126
-377 -468 -664 -890 -748 -121 -24 -368 -24 -480 0 -584 124 -972 587 -940
1122 16 251 124 484 313 671 278 276 688 399 1093 328z"/>
<path d="M2596 3359 c-82 -28 -169 -87 -316 -212 -239 -204 -315 -217 -557
-99 l-117 57 -95 0 c-237 0 -363 -100 -378 -300 -19 -254 145 -461 426 -537
87 -23 304 -29 380 -11 41 11 46 10 90 -22 113 -80 243 -123 396 -132 234 -12
434 84 596 287 113 141 169 290 169 451 0 155 -51 273 -169 390 -102 101 -182
141 -289 146 -60 3 -90 -1 -136 -18z m213 -156 c73 -36 161 -125 196 -197 23
-48 30 -76 33 -146 5 -102 -11 -169 -66 -275 -48 -92 -193 -241 -272 -278
-185 -89 -401 -71 -579 47 -86 58 -114 91 -226 271 -48 77 -105 164 -127 194
-25 33 -34 52 -24 48 115 -44 263 -54 352 -24 70 24 157 83 304 207 69 58 142
116 164 129 93 58 165 65 245 24z m-1341 -292 c75 -38 174 -160 315 -388 l76
-123 -25 -6 c-44 -11 -194 6 -273 31 -170 54 -263 161 -277 317 -15 155 66
229 184 169z"/>
<path d="M4155 838 c-74 -40 -53 -138 30 -138 70 0 100 76 50 125 -26 27 -49
31 -80 13z"/>
<path d="M4342 817 c-46 -49 -14 -121 53 -121 45 0 75 30 75 75 0 64 -84 93
-128 46z"/>
<path d="M4241 653 c-11 -10 -24 -32 -27 -50 -5 -26 -1 -37 19 -57 44 -44 104
-30 127 28 26 69 -61 126 -119 79z"/>
</g>
</svg>
